<svg xmlns="http://www.w3.org/2000/svg" xmlns:xlink="http://www.w3.org/1999/xlink" viewBox="0 0 900 500"><defs><style>.cls-1,.cls-14,.cls-6{fill:none;}.cls-2,.cls-3{fill:#fff;}.cls-10,.cls-11,.cls-12,.cls-13,.cls-14,.cls-2,.cls-3,.cls-4,.cls-5,.cls-6,.cls-7,.cls-8,.cls-9{stroke:#000;stroke-miterlimit:10;}.cls-2{stroke-width:0.25px;}.cls-12,.cls-14,.cls-3,.cls-7,.cls-9{stroke-width:2px;}.cls-4{fill:#16456a;}.cls-10,.cls-11,.cls-13,.cls-4,.cls-5,.cls-6,.cls-8{stroke-width:3px;}.cls-5{fill:#7f7f7f;}.cls-8,.cls-9{fill:#f4e8cd;}.cls-10{fill:#686868;}.cls-11{fill:#99b88e;}.cls-12,.cls-13{fill:#795d47;}</style><symbol id="d1" data-name="d1" viewBox="0 0 300 500"><rect class="cls-1" width="300" height="500"/><g id="sko"><path d="M176.61,463.87h53.24a1.15,1.15,0,0,0,1.15-1.15V462a22.41,22.41,0,0,0-22.41-22.41h-32a1.15,1.15,0,0,0-1.15,1.15v22A1.15,1.15,0,0,0,176.61,463.87Z"/><path d="M89.41,440.44h32a1.15,1.15,0,0,1,1.15,1.15v22a1.15,1.15,0,0,1-1.15,1.15H68.15A1.15,1.15,0,0,1,67,463.59v-.74A22.41,22.41,0,0,1,89.41,440.44Z"/><path class="cls-2" d="M90.79,455.5l-1,.17a1,1,0,0,1-1.15-.82l-1.56-9.15a1,1,0,0,1,.82-1.15l1-.17a1,1,0,0,1,1.15.82l1.56,9.15A1,1,0,0,1,90.79,455.5Z"/><path class="cls-2" d="M95.45,454.63l-1,.17a1,1,0,0,1-1.15-.82l-1.56-9.15a1,1,0,0,1,.82-1.15l1-.17a1,1,0,0,1,1.15.82l1.56,9.15A1,1,0,0,1,95.45,454.63Z"/><path class="cls-2" d="M100.1,453.76l-1,.17a1,1,0,0,1-1.15-.82L96.4,444a1,1,0,0,1,.82-1.15l1-.17a1,1,0,0,1,1.15.82l1.56,9.15A1,1,0,0,1,100.1,453.76Z"/><path class="cls-2" d="M209.15,455.5l1,.17a1,1,0,0,0,1.15-.82l1.56-9.15a1,1,0,0,0-.82-1.15l-1-.17a1,1,0,0,0-1.15.82l-1.56,9.15A1,1,0,0,0,209.15,455.5Z"/><path class="cls-2" d="M204.5,454.63l1,.17a1,1,0,0,0,1.15-.82l1.56-9.15a1,1,0,0,0-.82-1.15l-1-.17a1,1,0,0,0-1.15.82l-1.56,9.15A1,1,0,0,0,204.5,454.63Z"/><path class="cls-2" d="M199.85,453.76l1,.17a1,1,0,0,0,1.15-.82l1.56-9.15a1,1,0,0,0-.82-1.15l-1-.17a1,1,0,0,0-1.15.82L199,452.6A1,1,0,0,0,199.85,453.76Z"/><rect class="cls-3" x="67" y="458.66" width="55.53" height="6.07"/><rect class="cls-3" x="175.47" y="457.8" width="55.53" height="6.07"/></g><g id="jeans"><path class="cls-4" d="M208.87,305.51v131H176.77V378.89A24.85,24.85,0,0,0,152,354.1h-6a24.85,24.85,0,0,0-24.78,24.78v57.65H90v-131Z"/></g><g id="hoodie"><path class="cls-5" d="M91.73,205.32s8.68-35.5,57.27-29.9c0,0,45.12-9.34,56.4,29.9l5.21,4.67V326.77H90L86.52,211.86Z"/><line class="cls-5" x1="89.56" y1="205.72" x2="117.76" y2="205.72"/><line class="cls-5" x1="208.44" y1="205.72" x2="179.8" y2="205.72"/><path class="cls-6" d="M116.46,200.08s5.21,29.5,33,27.77c0,0,30.37-1.74,32.11-26.9"/><path class="cls-6" d="M131.65,207.46"/><rect class="cls-7" x="130.78" y="207.46" width="2.6" height="39.92" rx="1.3" ry="1.3"/><rect class="cls-7" x="165.49" y="207.46" width="2.6" height="39.92" rx="1.3" ry="1.3"/><ellipse class="cls-8" cx="82.62" cy="329.9" rx="9.11" ry="16.83"/><ellipse class="cls-9" cx="92.38" cy="330.81" rx="3.25" ry="7.73"/><ellipse class="cls-8" cx="212.34" cy="329.9" rx="9.11" ry="16.83"/><ellipse class="cls-9" cx="202.58" cy="330.81" rx="3.25" ry="7.73"/><rect class="cls-5" x="200.2" y="205.72" width="23.43" height="120.99" rx="11.71" ry="11.71"/><rect class="cls-5" x="73.51" y="205.72" width="23.43" height="122.81" rx="11.71" ry="11.71"/><path class="cls-10" d="M168,280.43V280a4.82,4.82,0,0,0-4.82-4.82H135.59a4.82,4.82,0,0,0-4.82,4.82v.48a4.82,4.82,0,0,1-4.82,4.82h-.78a4.82,4.82,0,0,0-4.82,4.82v21.48a4.82,4.82,0,0,0,4.82,4.82h47.64a4.82,4.82,0,0,0,4.82-4.82V290.07a4.82,4.82,0,0,0-4.82-4.82h0A4.82,4.82,0,0,1,168,280.43Z"/></g><g id="kasket"><path class="cls-11" d="M92.16,83.81S106,46.49,151.17,50c0,0,42.52-3.47,56.4,31.24v31.24H92.16Z"/><path class="cls-12" d="M169.39,101.59c-1.34,2.2-7.56,2.22-20,2.17-11.29,0-17-.11-18.22-2.17-3.39-5.53,6-23.86,19.09-23.86S172.79,96,169.39,101.59Z"/><rect x="127.74" y="101.16" width="45.12" height="9.54" rx="4.77" ry="4.77"/></g><g id="hår"><path class="cls-13" d="M203.23,113.31s9.54,1.74,10.41,11.28c0,0,12.15,9.54.87,23.43,0,0,1.74,8.68-8.68,11.28L93,158.43s-6.94.87-8.68-9.54c0,0-12.15-10.41,0-22.56,0,0-2.6-10.41,7.81-12.15S203.23,113.31,203.23,113.31Z"/></g><g id="ansigt"><ellipse class="cls-8" cx="149.43" cy="192.27" rx="14.32" ry="10.85"/><ellipse class="cls-9" cx="94.33" cy="134.57" rx="8.24" ry="9.11"/><ellipse class="cls-9" cx="205.4" cy="136.3" rx="8.24" ry="9.11"/><path class="cls-8" d="M94.33,113.74V158s0,11.28,9.54,15.62l20,14.75a19.25,19.25,0,0,0,11.28,3.47h32.11s8.68,0,13.88-6.94l20-16.49s5.21-1.74,4.34-15.62V112H94.33Z"/><circle cx="125.14" cy="135.87" r="5.21"/><circle cx="172.86" cy="135.87" r="5.21"/><rect x="159.85" y="116.78" width="26.9" height="10.41" rx="5.21" ry="5.21"/><rect x="112.12" y="116.78" width="27.77" height="10.41" rx="5.21" ry="5.21"/><path class="cls-6" d="M140.32,176.22s7.81,11.28,18.22,0"/><rect class="cls-14" x="140.76" y="136.74" width="18.22" height="26.9" rx="9.11" ry="9.11"/></g></symbol><symbol id="d2" data-name="d2" viewBox="0 0 300 500"><rect class="cls-1" width="300" height="500"/><g id="sko_copy" data-name="sko copy"><path d="M176.61,463.87h53.24a1.15,1.15,0,0,0,1.15-1.15V462a22.41,22.41,0,0,0-22.41-22.41h-32a1.15,1.15,0,0,0-1.15,1.15v22A1.15,1.15,0,0,0,176.61,463.87Z"/><path d="M89.41,440.44h32a1.15,1.15,0,0,1,1.15,1.15v22a1.15,1.15,0,0,1-1.15,1.15H68.15A1.15,1.15,0,0,1,67,463.59v-.74A22.41,22.41,0,0,1,89.41,440.44Z"/><path class="cls-2" d="M90.79,455.5l-1,.17a1,1,0,0,1-1.15-.82l-1.56-9.15a1,1,0,0,1,.82-1.15l1-.17a1,1,0,0,1,1.15.82l1.56,9.15A1,1,0,0,1,90.79,455.5Z"/><path class="cls-2" d="M95.45,454.63l-1,.17a1,1,0,0,1-1.15-.82l-1.56-9.15a1,1,0,0,1,.82-1.15l1-.17a1,1,0,0,1,1.15.82l1.56,9.15A1,1,0,0,1,95.45,454.63Z"/><path class="cls-2" d="M100.1,453.76l-1,.17a1,1,0,0,1-1.15-.82L96.4,444a1,1,0,0,1,.82-1.15l1-.17a1,1,0,0,1,1.15.82l1.56,9.15A1,1,0,0,1,100.1,453.76Z"/><path class="cls-2" d="M209.15,455.5l1,.17a1,1,0,0,0,1.15-.82l1.56-9.15a1,1,0,0,0-.82-1.15l-1-.17a1,1,0,0,0-1.15.82l-1.56,9.15A1,1,0,0,0,209.15,455.5Z"/><path class="cls-2" d="M204.5,454.63l1,.17a1,1,0,0,0,1.15-.82l1.56-9.15a1,1,0,0,0-.82-1.15l-1-.17a1,1,0,0,0-1.15.82l-1.56,9.15A1,1,0,0,0,204.5,454.63Z"/><path class="cls-2" d="M199.85,453.76l1,.17a1,1,0,0,0,1.15-.82l1.56-9.15a1,1,0,0,0-.82-1.15l-1-.17a1,1,0,0,0-1.15.82L199,452.6A1,1,0,0,0,199.85,453.76Z"/><rect class="cls-3" x="67" y="458.66" width="55.53" height="6.07"/><rect class="cls-3" x="175.47" y="457.8" width="55.53" height="6.07"/></g><g id="jeans_copy" data-name="jeans copy"><path class="cls-4" d="M208.87,305.51v131H176.77V378.89A24.85,24.85,0,0,0,152,354.1h-6a24.85,24.85,0,0,0-24.78,24.78v57.65H90v-131Z"/></g><g id="hoodie_copy" data-name="hoodie copy"><path class="cls-5" d="M91.73,205.32s8.68-35.5,57.27-29.9c0,0,45.12-9.34,56.4,29.9l5.21,4.67V326.77H90L86.52,211.86Z"/><line class="cls-5" x1="89.56" y1="205.72" x2="117.76" y2="205.72"/><line class="cls-5" x1="208.44" y1="205.72" x2="179.8" y2="205.72"/><path class="cls-6" d="M116.46,200.08s5.21,29.5,33,27.77c0,0,30.37-1.74,32.11-26.9"/><path class="cls-6" d="M131.65,207.46"/><rect class="cls-7" x="130.78" y="207.46" width="2.6" height="39.92" rx="1.3" ry="1.3"/><rect class="cls-7" x="165.49" y="207.46" width="2.6" height="39.92" rx="1.3" ry="1.3"/><ellipse class="cls-8" cx="82.62" cy="329.9" rx="9.11" ry="16.83"/><ellipse class="cls-9" cx="92.38" cy="330.81" rx="3.25" ry="7.73"/><ellipse class="cls-8" cx="212.34" cy="329.9" rx="9.11" ry="16.83"/><ellipse class="cls-9" cx="202.58" cy="330.81" rx="3.25" ry="7.73"/><rect class="cls-5" x="200.2" y="205.72" width="23.43" height="120.99" rx="11.71" ry="11.71"/><rect class="cls-5" x="73.51" y="205.72" width="23.43" height="122.81" rx="11.71" ry="11.71"/><path class="cls-10" d="M168,280.43V280a4.82,4.82,0,0,0-4.82-4.82H135.59a4.82,4.82,0,0,0-4.82,4.82v.48a4.82,4.82,0,0,1-4.82,4.82h-.78a4.82,4.82,0,0,0-4.82,4.82v21.48a4.82,4.82,0,0,0,4.82,4.82h47.64a4.82,4.82,0,0,0,4.82-4.82V290.07a4.82,4.82,0,0,0-4.82-4.82h0A4.82,4.82,0,0,1,168,280.43Z"/></g><g id="kasket_copy" data-name="kasket copy"><path class="cls-11" d="M92.16,83.81S106,46.49,151.17,50c0,0,42.52-3.47,56.4,31.24v31.24H92.16Z"/><path class="cls-12" d="M169.39,101.59c-1.34,2.2-7.56,2.22-20,2.17-11.29,0-17-.11-18.22-2.17-3.39-5.53,6-23.86,19.09-23.86S172.79,96,169.39,101.59Z"/><rect x="127.74" y="101.16" width="45.12" height="9.54" rx="4.77" ry="4.77"/></g><g id="hår_copy" data-name="hår copy"><path class="cls-13" d="M203.23,113.31s9.54,1.74,10.41,11.28c0,0,12.15,9.54.87,23.43,0,0,1.74,8.68-8.68,11.28L93,158.43s-6.94.87-8.68-9.54c0,0-12.15-10.41,0-22.56,0,0-2.6-10.41,7.81-12.15S203.23,113.31,203.23,113.31Z"/></g><g id="ansigt_copy" data-name="ansigt copy"><ellipse class="cls-8" cx="149.43" cy="192.27" rx="14.32" ry="10.85"/><ellipse class="cls-9" cx="94.33" cy="134.57" rx="8.24" ry="9.11"/><ellipse class="cls-9" cx="205.4" cy="136.3" rx="8.24" ry="9.11"/><path class="cls-8" d="M94.33,113.74V158s0,11.28,9.54,15.62l20,14.75a19.25,19.25,0,0,0,11.28,3.47h32.11s8.68,0,13.88-6.94l20-16.49s5.21-1.74,4.34-15.62V112H94.33Z"/><ellipse cx="172.86" cy="135.33" rx="5.21" ry="0.67"/><ellipse cx="124.86" cy="135.33" rx="5.21" ry="0.67"/><rect x="159.85" y="116.78" width="26.9" height="10.41" rx="5.21" ry="5.21"/><rect x="112.12" y="116.78" width="27.77" height="10.41" rx="5.21" ry="5.21"/><path class="cls-6" d="M140.32,176.22s7.81,11.28,18.22,0"/><rect class="cls-14" x="140.76" y="136.74" width="18.22" height="26.9" rx="9.11" ry="9.11"/></g></symbol></defs><title>jonasblink</title><g id="Layer_2" data-name="Layer 2"><g id="Dreng"><use width="300" height="500" xlink:href="#d1"/><use width="300" height="500" transform="translate(300)" xlink:href="#d2"/><use width="300" height="500" transform="translate(600)" xlink:href="#d1"/></g></g></svg>