<svg id="jubel2" xmlns="http://www.w3.org/2000/svg" xmlns:xlink="http://www.w3.org/1999/xlink" viewBox="0 0 3200 900"><defs><style>.cls-1{fill:none;}.cls-2{fill:#ffb636;}.cls-3{fill:#ffd469;}.cls-4{fill:#a06c33;}.cls-5{fill:#f7f9aa;}.cls-6{fill:#55c6f1;}.cls-7{fill:#f56c80;}.cls-8{fill:#b19deb;}.cls-9{fill:#2b3b47;}</style><symbol id="j1" data-name="j1" viewBox="0 0 1600 900"><g id="background"><rect class="cls-1" width="1600" height="900"/></g><g id="confetti1"><rect class="cls-1" x="274" y="358.5" width="221" height="173.5"/><path class="cls-2" d="M352.4781,410.78l67.8751,61.2026-97.6014,41.9s-4.9544,2.3539-8.4224-.9416c0,0-3.4681-1.8831-2.4772-7.5326Z"/><path class="cls-3" d="M314.3294,512.941s-3.1245-1.8461-2.5531-7.0433l3.6024-8.7034L365.36,424.4327l19.3221,19.3023-8.4224,6.5911Z"/><ellipse class="cls-4" cx="386.9701" cy="440.2549" rx="14.3279" ry="46.0617" transform="translate(-198.8526 420.711) rotate(-46.7748)"/><ellipse class="cls-5" cx="351.735" cy="465.1559" rx="2.9726" ry="2.8247"/><ellipse class="cls-6" cx="321.5132" cy="380.8847" rx="3.7158" ry="3.5309"/><ellipse class="cls-6" cx="432.9869" cy="390.3004" rx="3.7158" ry="3.5309"/><ellipse class="cls-7" cx="327.2108" cy="418.7832" rx="5.4498" ry="5.1787"/><ellipse class="cls-7" cx="372.2957" cy="489.8723" rx="5.4498" ry="5.1787"/><ellipse class="cls-2" cx="426.2984" cy="495.5218" rx="5.4498" ry="5.1787"/><ellipse class="cls-2" cx="451.5658" cy="431.9653" rx="5.4498" ry="5.1787"/><ellipse class="cls-7" cx="425.3076" cy="417.8416" rx="6.4407" ry="6.1203"/><path class="cls-7" d="M400.7984,456.5275s1.3262,2.2545,5.1424.9985c0,0,22.5654-17.4318,39.4317,1.5121,0,0,1.7988,1.2709,4.4581-.3633a2.9469,2.9469,0,0,0,.7759-3.8434s-17.29-23.6345-49.0745-2.6163A3.3727,3.3727,0,0,0,400.7984,456.5275Z"/><path class="cls-6" d="M367.3413,417.8416s-2.4772-.9416-1.4863-4.2371c0,0,16.3494-20.2439-4.9544-32.9552,0,0-1.4863-1.4124,0-3.7663a3.488,3.488,0,0,1,3.9635-.9416S391.1223,388.6527,371.8,416.9A4.0278,4.0278,0,0,1,367.3413,417.8416Z"/><path class="cls-8" d="M398.0585,453.5506s.9908-3.2955-1.4864-3.2955c0,0-6.4407-1.4124-5.9452-4.2371,0,0,.9909-3.7664,8.4224-2.354,0,0,8.4225-.4708,9.9088-7.0618,0,0,2.9726-6.12-6.9361-10.3574,0,0-8.4225-1.4124-7.927-4.7079,0,0-.4955-3.2955,8.9178-2.3539,0,0,8.9179-.4708,9.9088-8.0034,0,0,.4954-8.945-10.4042-10.3574,0,0-3.4681.4708-3.4681,2.3539a2.4782,2.4782,0,0,0,1.4864,2.8248s7.4315,1.8831,5.9452,5.1787c0,0-2.9726,3.2955-6.4407,1.8831,0,0-10.4042-.9416-11.8905,7.5326,0,0-1.4863,7.0619,6.4407,9.8866,0,0,8.9179.4708,8.4224,4.7079,0,0-.9908,3.7663-8.9178,2.3539,0,0-9.9088.9416-9.4134,8.0035,0,0-.9909,8.945,10.4042,10.3573A3.0671,3.0671,0,0,0,398.0585,453.5506Z"/><polygon class="cls-1" points="873.377 137.057 1093.982 150.252 1083.623 323.443 863.018 310.248 873.377 137.057"/><path class="cls-2" d="M1008.4067,266.5706l-64.1-65.1459,99.929-35.9981s5.0861-2.054,8.3512,1.4427c0,0,3.3494,2.0869,2.023,7.6671Z"/><path class="cls-3" d="M1052.587,166.8693s3.0087,2.0294,2.128,7.1832l-4.1156,8.4728-54.236,69.6477-18.1352-20.4216,8.801-6.0764Z"/><ellipse class="cls-4" cx="975.7361" cy="235.0887" rx="14.3279" ry="46.0617" transform="translate(104.8452 733.9641) rotate(-43.3519)"/><ellipse class="cls-5" cx="1012.3951" cy="212.3359" rx="2.8247" ry="2.9726" transform="translate(739.9923 1210.2472) rotate(-86.5771)"/><ellipse class="cls-6" cx="1037.5314" cy="298.2612" rx="3.5309" ry="3.7158" transform="translate(677.8559 1316.1338) rotate(-86.5771)"/><ellipse class="cls-6" cx="926.8188" cy="282.2066" rx="3.5309" ry="3.7158" transform="translate(589.7794 1190.5227) rotate(-86.5771)"/><ellipse class="cls-7" cx="1034.1068" cy="260.0901" rx="5.1787" ry="5.4498" transform="translate(712.7387 1276.8232) rotate(-86.5771)"/><ellipse class="cls-7" cx="993.3468" cy="186.4359" rx="5.1787" ry="5.4498" transform="translate(747.935 1166.8793) rotate(-86.5771)"/><ellipse class="cls-2" cx="939.7776" cy="177.5723" rx="5.1787" ry="5.4498" transform="translate(706.4121 1105.0713) rotate(-86.5771)"/><ellipse class="cls-2" cx="910.7607" cy="239.5068" rx="5.1787" ry="5.4498" transform="translate(617.3036 1134.3428) rotate(-86.5771)"/><ellipse class="cls-7" cx="936.1288" cy="255.1731" rx="6.1203" ry="6.4407" transform="translate(625.5188 1174.3965) rotate(-86.5771)"/><path class="cls-7" d="M962.904,218.02s-1.1892-2.33-5.0736-1.3038c0,0-23.5659,16.0535-39.2711-3.8636,0,0-1.72-1.3761-4.4719.0965a2.9468,2.9468,0,0,0-1.0039,3.79s15.8476,24.6247,48.8308,5.5417A3.3728,3.3728,0,0,0,962.904,218.02Z"/><path class="cls-6" d="M993.9917,258.634s2.4165,1.0878,1.2307,4.3183c0,0-17.529,19.2316,2.9779,33.1922,0,0,1.3993,1.4986-.2249,3.76a3.488,3.488,0,0,1-4.0126.7033s-25.4525-14.2564-4.4783-41.3A4.0279,4.0279,0,0,1,993.9917,258.634Z"/><path class="cls-8" d="M965.4613,221.1547s-1.1858,3.2305,1.2869,3.3784c0,0,6.3449,1.7944,5.6817,4.5845,0,0-1.214,3.7-8.548,1.8469,0,0-8.4355-.0329-10.3127,6.4576,0,0-3.3327,5.9319,6.3054,10.753,0,0,8.3231,1.9127,7.6318,5.1728,0,0,.2978,3.3192-9.0426,1.8173,0,0-8.93-.0625-10.3689,7.3975,0,0-1.0286,8.8995,9.7672,10.96,0,0,3.49-.2629,3.6025-2.1427a2.478,2.478,0,0,0-1.315-2.9084s-7.3059-2.3235-5.6255-5.5244c0,0,3.1641-3.1122,6.5416-1.4953,0,0,10.33,1.5611,12.3191-6.8092,0,0,1.9053-6.96-5.8389-10.2535,0,0-8.8739-1.0024-8.1264-5.2024,0,0,1.214-3.7,9.0426-1.8173,0,0,9.9473-.3483,9.8743-7.4271,0,0,1.5232-8.87-9.7672-10.96A3.0671,3.0671,0,0,0,965.4613,221.1547Z"/></g><g id="confetti2"><path class="cls-9" d="M1121.6027,344.9354s2.56.8712,2.2713,2.5865-4.0367,24.0137,17.2514,34.2062c0,0,2.3433,2.1576.6671,4.0805,0,0-4.4521,2.3382-7.4564-1.2534,0,0-13.0265-8.3627-15.6167-22.4671a43.3855,43.3855,0,0,1-22.032,15.6976s-5.3294,2.1907-6.8676.6093c0,0-.1564-4.4356,1.7422-4.9983,0,0,22.1347-2.8933,26.6821-27.2621C1118.2441,346.1346,1119.92,344.2117,1121.6027,344.9354Z"/><path class="cls-2" d="M1076.7151,367.8144s-32.4574-5.456-41.4385,29.191l71.422,12.4467S1114.442,376.8018,1076.7151,367.8144Z"/><path class="cls-2" d="M1155.6656,381.0857s-32.4574-5.456-41.4385,29.191l71.422,12.4467S1193.3925,390.0731,1155.6656,381.0857Z"/><path class="cls-3" d="M1156.5428,381.2332s-20.1693,2.7556-30.4849,27.4911c0,0,3.7369,2.8464,6.3686,3.2888,0,0,7.5952-.7651,7.739-2.3656,0,0,5.2263-15.7379,15.9448-25.8414C1156.11,383.8061,1156.9094,381.7357,1156.5428,381.2332Z"/><path class="cls-3" d="M1077.5924,367.9619s-20.1693,2.7556-30.485,27.4911c0,0,3.737,2.8464,6.3686,3.2888,0,0,7.5953-.7651,7.7391-2.3656,0,0,5.2263-15.7379,15.9448-25.8414C1077.16,370.5348,1077.9589,368.4644,1077.5924,367.9619Z"/><ellipse class="cls-4" cx="1150.2686" cy="417.217" rx="6.0877" ry="36.2485" transform="translate(548.1431 1482.4084) rotate(-80.458)"/><ellipse class="cls-4" cx="1070.8795" cy="403.8719" rx="6.0877" ry="36.2485" transform="translate(495.0748 1392.9849) rotate(-80.458)"/><path class="cls-8" d="M1135.3894,464.0834s1.3776-2.879-.7951-3.2442c0,0-5.4308-2.246-4.56-4.7658,0,0,1.45-3.3111,7.75-.919,0,0,7.46.81,9.78-5.0214,0,0,3.5515-5.18-4.4852-10.53,0,0-7.1689-2.5382-6.2259-5.49,0,0,.074-3.0981,8.1846-.846,0,0,7.8941.8826,9.9254-5.8857,0,0,1.8147-8.1377-7.5268-11.0411,0,0-3.1143-.0791-3.4049,1.6494a2.3476,2.3476,0,0,0,.8677,2.812s6.2273,2.8243,4.4152,5.63c0,0-3.1156,2.5867-5.9394.779,0,0-8.98-2.3982-11.5907,5.1614a8.2441,8.2441,0,0,0,4.1232,10.0246s7.7488,1.7469,6.66,5.5632c0,0-1.45,3.311-8.1846.8459,0,0-8.8357-.5965-9.4908,5.9588,0,0-2.2493,8.0647,7.5268,11.0411A2.7352,2.7352,0,0,0,1135.3894,464.0834Z"/><path class="cls-7" d="M1054.5041,406.6852s-.1765,2.171,1.6392,1.7008c0,0,4.9565-.3726,5.0645,1.421,0,0-.098,2.4542-5.7808,3.0149,0,0-6.0949,1.8818-6.0849,6.13,0,0-1.158,4.2467,6.8117,4.9154,0,0,6.4091-.7487,6.5956,1.3282,0,0,.9129,1.8888-6.1439,3.1089,0,0-6.4581,1.9758-5.9279,6.6961,0,0,1.129,5.4761,9.3538,4.2572,0,0,2.4634-.9415,2.1493-2.0745,0,0,.049-1.2271-1.5606-1.4175,0,0-5.7613.2774-5.2216-1.9876a5.276,5.276,0,0,1,4.4068-2.3555s7.7831-1.4081,7.4589-6.789c0,0-.0885-4.5311-6.37-4.7262,0,0-6.6151,1.4094-6.9588-1.2341,0,0,.0981-2.4542,6.144-3.1089,0,0,7.1058-2.4471,5.5647-6.6021,0,0-.7658-5.57-9.3538-4.2572C1056.29,404.7047,1054.4746,405.1749,1054.5041,406.6852Z"/><path class="cls-6" d="M1082.3632,426.125s-2.0946.5582-1.97,3.967c0,0,8.6839,22.4852-10.226,31.8489,0,0-1.4214,1.1731-.7317,3.7252a2.4259,2.4259,0,0,0,2.8757,1.5282s22.7332-8.6175,13.31-39.4664A2.7726,2.7726,0,0,0,1082.3632,426.125Z"/><path class="cls-7" d="M1165.5366,452.7417s1.5342,1.5866-.3377,4.8565c0,0-19.1914,17.6617-7.5782,36.212,0,0,.63,1.853-1.29,4.0047,0,0-1.7594,1.6511-3.2936.0645,0,0-15.3267-19.7211,8.8351-45.19A2.6693,2.6693,0,0,1,1165.5366,452.7417Z"/><ellipse class="cls-6" cx="1097.93" cy="425.395" rx="3.2613" ry="3.3358" transform="translate(496.4159 1437.6164) rotate(-80.458)"/><ellipse class="cls-6" cx="1172.999" cy="434.9273" rx="3.2613" ry="3.3358" transform="translate(549.6402 1519.5988) rotate(-80.458)"/><ellipse class="cls-2" cx="1107.7934" cy="440.5015" rx="4.3483" ry="4.4477" transform="translate(489.7467 1459.9455) rotate(-80.458)"/><ellipse class="cls-7" cx="1105.0848" cy="470.0297" rx="4.3483" ry="4.4477" transform="matrix(0.1658, -0.9862, 0.9862, 0.1658, 458.3675, 1481.9078)"/><ellipse class="cls-8" cx="1063.1527" cy="475.3273" rx="4.3483" ry="4.4477" transform="translate(418.1622 1444.9751) rotate(-80.458)"/><ellipse class="cls-2" cx="1046.1151" cy="454.6055" rx="4.1309" ry="4.2253" transform="translate(424.3841 1410.8865) rotate(-80.458)"/><ellipse class="cls-2" cx="1123.5763" cy="487.4685" rx="3.6961" ry="3.7805" transform="translate(456.5961 1514.6913) rotate(-80.458)"/><path class="cls-9" d="M586.6027,162.9354s2.56.8712,2.2713,2.5865-4.0367,24.0137,17.2514,34.2062c0,0,2.3433,2.1576.6671,4.0805,0,0-4.4521,2.3382-7.4564-1.2534,0,0-13.0265-8.3627-15.6167-22.4671a43.3855,43.3855,0,0,1-22.032,15.6976s-5.3294,2.1907-6.8676.6093c0,0-.1564-4.4356,1.7422-4.9983,0,0,22.1347-2.8933,26.6821-27.2621C583.2441,164.1346,584.92,162.2117,586.6027,162.9354Z"/><path class="cls-2" d="M541.7151,185.8144s-32.4574-5.456-41.4385,29.191l71.422,12.4467S579.442,194.8018,541.7151,185.8144Z"/><path class="cls-2" d="M620.6656,199.0857s-32.4574-5.456-41.4385,29.191l71.422,12.4467S658.3925,208.0731,620.6656,199.0857Z"/><path class="cls-3" d="M621.5428,199.2332s-20.1693,2.7556-30.4849,27.4911c0,0,3.7369,2.8464,6.3686,3.2888,0,0,7.5952-.7651,7.739-2.3656,0,0,5.2263-15.7379,15.9448-25.8414C621.11,201.8061,621.9094,199.7357,621.5428,199.2332Z"/><path class="cls-3" d="M542.5924,185.9619s-20.1693,2.7556-30.485,27.4911c0,0,3.737,2.8464,6.3686,3.2888,0,0,7.5953-.7651,7.7391-2.3656,0,0,5.2263-15.7379,15.9448-25.8414C542.16,188.5348,542.9589,186.4644,542.5924,185.9619Z"/><ellipse class="cls-4" cx="615.2686" cy="235.217" rx="6.0877" ry="36.2485" transform="translate(281.3124 802.9808) rotate(-80.458)"/><ellipse class="cls-4" cx="535.8795" cy="221.8719" rx="6.0877" ry="36.2485" transform="translate(228.2441 713.5573) rotate(-80.458)"/><path class="cls-8" d="M600.3894,282.0834s1.3776-2.879-.7951-3.2442c0,0-5.4308-2.246-4.56-4.7658,0,0,1.45-3.3111,7.75-.919,0,0,7.46.81,9.78-5.0214,0,0,3.5515-5.18-4.4852-10.53,0,0-7.1689-2.5382-6.2259-5.49,0,0,.074-3.0981,8.1846-.846,0,0,7.8941.8826,9.9254-5.8857,0,0,1.8147-8.1377-7.5268-11.0411,0,0-3.1143-.0791-3.4049,1.6494a2.3476,2.3476,0,0,0,.8677,2.812s6.2273,2.8243,4.4152,5.63c0,0-3.1156,2.5867-5.9394.779,0,0-8.98-2.3982-11.5907,5.1614a8.2441,8.2441,0,0,0,4.1232,10.0246s7.7488,1.7469,6.66,5.5632c0,0-1.45,3.311-8.1846.8459,0,0-8.8357-.5965-9.4908,5.9588,0,0-2.2493,8.0647,7.5268,11.0411A2.7352,2.7352,0,0,0,600.3894,282.0834Z"/><path class="cls-7" d="M519.5041,224.6852s-.1765,2.171,1.6392,1.7008c0,0,4.9565-.3726,5.0645,1.421,0,0-.098,2.4542-5.7808,3.0149,0,0-6.0949,1.8818-6.0849,6.13,0,0-1.158,4.2467,6.8117,4.9154,0,0,6.4091-.7487,6.5956,1.3282,0,0,.9129,1.8888-6.1439,3.1089,0,0-6.4581,1.9758-5.9279,6.6961,0,0,1.129,5.4761,9.3538,4.2572,0,0,2.4634-.9415,2.1493-2.0745,0,0,.049-1.2271-1.5606-1.4175,0,0-5.7613.2774-5.2216-1.9876a5.276,5.276,0,0,1,4.4068-2.3555s7.7831-1.4081,7.4589-6.789c0,0-.0885-4.5311-6.37-4.7262,0,0-6.6151,1.4094-6.9588-1.2341,0,0,.0981-2.4542,6.144-3.1089,0,0,7.1058-2.4471,5.5647-6.6021,0,0-.7658-5.57-9.3538-4.2572C521.29,222.7047,519.4746,223.1749,519.5041,224.6852Z"/><path class="cls-6" d="M547.3632,244.125s-2.0946.5582-1.97,3.967c0,0,8.6839,22.4852-10.226,31.8489,0,0-1.4214,1.1731-.7317,3.7252a2.4259,2.4259,0,0,0,2.8757,1.5282s22.7332-8.6175,13.31-39.4664A2.7726,2.7726,0,0,0,547.3632,244.125Z"/><path class="cls-7" d="M630.5366,270.7417s1.5342,1.5866-.3377,4.8565c0,0-19.1914,17.6617-7.5782,36.212,0,0,.63,1.853-1.2905,4.0047,0,0-1.7594,1.6511-3.2936.0645,0,0-15.3267-19.7211,8.8351-45.19A2.6693,2.6693,0,0,1,630.5366,270.7417Z"/><ellipse class="cls-6" cx="562.93" cy="243.395" rx="3.2613" ry="3.3358" transform="translate(229.5852 758.1887) rotate(-80.458)"/><ellipse class="cls-6" cx="637.999" cy="252.9273" rx="3.2613" ry="3.3358" transform="translate(282.8095 840.1711) rotate(-80.458)"/><ellipse class="cls-2" cx="572.7934" cy="258.5015" rx="4.3483" ry="4.4477" transform="translate(222.916 780.5179) rotate(-80.458)"/><ellipse class="cls-7" cx="570.0848" cy="288.0297" rx="4.3483" ry="4.4477" transform="matrix(0.1658, -0.9862, 0.9862, 0.1658, 191.5368, 802.4801)"/><ellipse class="cls-8" cx="528.1527" cy="293.3273" rx="4.3483" ry="4.4477" transform="translate(151.3315 765.5475) rotate(-80.458)"/><ellipse class="cls-2" cx="511.1151" cy="272.6055" rx="4.1309" ry="4.2253" transform="translate(157.5534 731.4589) rotate(-80.458)"/><ellipse class="cls-2" cx="588.5763" cy="305.4685" rx="3.6961" ry="3.7805" transform="translate(189.7654 835.2637) rotate(-80.458)"/></g></symbol><symbol id="j2" data-name="j2" viewBox="0 0 1600 900"><g id="background_copy" data-name="background copy"><rect class="cls-1" width="1600" height="900"/></g><g id="confetti1_copy" data-name="confetti1 copy"><rect class="cls-1" x="274" y="358.5" width="221" height="173.5"/><path class="cls-2" d="M352.4781,410.78l67.8751,61.2026-97.6014,41.9s-4.9544,2.3539-8.4224-.9416c0,0-3.4681-1.8831-2.4772-7.5326Z"/><path class="cls-3" d="M314.3294,512.941s-3.1245-1.8461-2.5531-7.0433l3.6024-8.7034L365.36,424.4327l19.3221,19.3023-8.4224,6.5911Z"/><ellipse class="cls-4" cx="386.9701" cy="440.2549" rx="14.3279" ry="46.0617" transform="translate(-198.8526 420.711) rotate(-46.7748)"/><ellipse class="cls-5" cx="351.735" cy="465.1559" rx="2.9726" ry="2.8247"/><ellipse class="cls-6" cx="321.5132" cy="380.8847" rx="3.7158" ry="3.5309"/><ellipse class="cls-6" cx="432.9869" cy="390.3004" rx="3.7158" ry="3.5309"/><ellipse class="cls-7" cx="327.2108" cy="418.7832" rx="5.4498" ry="5.1787"/><ellipse class="cls-7" cx="372.2957" cy="489.8723" rx="5.4498" ry="5.1787"/><ellipse class="cls-2" cx="426.2984" cy="495.5218" rx="5.4498" ry="5.1787"/><ellipse class="cls-2" cx="451.5658" cy="431.9653" rx="5.4498" ry="5.1787"/><ellipse class="cls-7" cx="425.3076" cy="417.8416" rx="6.4407" ry="6.1203"/><path class="cls-7" d="M400.7984,456.5275s1.3262,2.2545,5.1424.9985c0,0,22.5654-17.4318,39.4317,1.5121,0,0,1.7988,1.2709,4.4581-.3633a2.9469,2.9469,0,0,0,.7759-3.8434s-17.29-23.6345-49.0745-2.6163A3.3727,3.3727,0,0,0,400.7984,456.5275Z"/><path class="cls-6" d="M367.3413,417.8416s-2.4772-.9416-1.4863-4.2371c0,0,16.3494-20.2439-4.9544-32.9552,0,0-1.4863-1.4124,0-3.7663a3.488,3.488,0,0,1,3.9635-.9416S391.1223,388.6527,371.8,416.9A4.0278,4.0278,0,0,1,367.3413,417.8416Z"/><path class="cls-8" d="M398.0585,453.5506s.9908-3.2955-1.4864-3.2955c0,0-6.4407-1.4124-5.9452-4.2371,0,0,.9909-3.7664,8.4224-2.354,0,0,8.4225-.4708,9.9088-7.0618,0,0,2.9726-6.12-6.9361-10.3574,0,0-8.4225-1.4124-7.927-4.7079,0,0-.4955-3.2955,8.9178-2.3539,0,0,8.9179-.4708,9.9088-8.0034,0,0,.4954-8.945-10.4042-10.3574,0,0-3.4681.4708-3.4681,2.3539a2.4782,2.4782,0,0,0,1.4864,2.8248s7.4315,1.8831,5.9452,5.1787c0,0-2.9726,3.2955-6.4407,1.8831,0,0-10.4042-.9416-11.8905,7.5326,0,0-1.4863,7.0619,6.4407,9.8866,0,0,8.9179.4708,8.4224,4.7079,0,0-.9908,3.7663-8.9178,2.3539,0,0-9.9088.9416-9.4134,8.0035,0,0-.9909,8.945,10.4042,10.3573A3.0671,3.0671,0,0,0,398.0585,453.5506Z"/><polygon class="cls-1" points="873.377 137.057 1093.982 150.252 1083.623 323.443 863.018 310.248 873.377 137.057"/><path class="cls-2" d="M1008.4067,266.5706l-64.1-65.1459,99.929-35.9981s5.0861-2.054,8.3512,1.4427c0,0,3.3494,2.0869,2.023,7.6671Z"/><path class="cls-3" d="M1052.587,166.8693s3.0087,2.0294,2.128,7.1832l-4.1156,8.4728-54.236,69.6477-18.1352-20.4216,8.801-6.0764Z"/><ellipse class="cls-4" cx="975.7361" cy="235.0887" rx="14.3279" ry="46.0617" transform="translate(104.8452 733.9641) rotate(-43.3519)"/><ellipse class="cls-5" cx="1012.3951" cy="212.3359" rx="2.8247" ry="2.9726" transform="translate(739.9923 1210.2472) rotate(-86.5771)"/><ellipse class="cls-6" cx="1027.5314" cy="305.2612" rx="3.5309" ry="3.7158" transform="translate(661.4654 1312.7337) rotate(-86.5771)"/><ellipse class="cls-6" cx="916.8188" cy="289.2066" rx="3.5309" ry="3.7158" transform="translate(573.3889 1187.1226) rotate(-86.5771)"/><ellipse class="cls-7" cx="1024.1068" cy="267.0901" rx="5.1787" ry="5.4498" transform="translate(696.3482 1273.4231) rotate(-86.5771)"/><ellipse class="cls-7" cx="983.3468" cy="193.4359" rx="5.1787" ry="5.4498" transform="translate(731.5446 1163.4792) rotate(-86.5771)"/><ellipse class="cls-2" cx="929.7776" cy="184.5723" rx="5.1787" ry="5.4498" transform="translate(690.0217 1101.6712) rotate(-86.5771)"/><ellipse class="cls-2" cx="900.7607" cy="246.5068" rx="5.1787" ry="5.4498" transform="translate(600.9131 1130.9427) rotate(-86.5771)"/><ellipse class="cls-7" cx="926.1288" cy="262.1731" rx="6.1203" ry="6.4407" transform="translate(609.1283 1170.9964) rotate(-86.5771)"/><path class="cls-7" d="M952.904,225.02s-1.1892-2.33-5.0736-1.3038c0,0-23.5659,16.0535-39.2711-3.8636,0,0-1.72-1.3761-4.4719.0965a2.9468,2.9468,0,0,0-1.0039,3.79s15.8476,24.6247,48.8308,5.5417A3.3728,3.3728,0,0,0,952.904,225.02Z"/><path class="cls-6" d="M983.9917,265.634s2.4165,1.0878,1.2307,4.3183c0,0-17.529,19.2316,2.9779,33.1922,0,0,1.3993,1.4986-.2249,3.76a3.488,3.488,0,0,1-4.0126.7033s-25.4525-14.2564-4.4783-41.3A4.0279,4.0279,0,0,1,983.9917,265.634Z"/><path class="cls-8" d="M955.4613,228.1547s-1.1858,3.2305,1.2869,3.3784c0,0,6.3449,1.7944,5.6817,4.5845,0,0-1.214,3.7-8.548,1.8469,0,0-8.4355-.0329-10.3127,6.4576,0,0-3.3327,5.9319,6.3054,10.753,0,0,8.3231,1.9127,7.6318,5.1728,0,0,.2978,3.3192-9.0426,1.8173,0,0-8.93-.0625-10.3689,7.3975,0,0-1.0286,8.8995,9.7672,10.96,0,0,3.49-.2629,3.6025-2.1427a2.478,2.478,0,0,0-1.315-2.9084s-7.3059-2.3235-5.6255-5.5244c0,0,3.1641-3.1122,6.5416-1.4953,0,0,10.33,1.5611,12.3191-6.8092,0,0,1.9053-6.9605-5.8389-10.2535,0,0-8.8739-1.0024-8.1264-5.2024,0,0,1.214-3.7,9.0426-1.8173,0,0,9.9473-.3483,9.8743-7.4271,0,0,1.5232-8.87-9.7672-10.96A3.0671,3.0671,0,0,0,955.4613,228.1547Z"/></g><g id="confetti2_copy" data-name="confetti2 copy"><path class="cls-9" d="M1121.6027,344.9354s2.56.8712,2.2713,2.5865-4.0367,24.0137,17.2514,34.2062c0,0,2.3433,2.1576.6671,4.0805,0,0-4.4521,2.3382-7.4564-1.2534,0,0-13.0265-8.3627-15.6167-22.4671a43.3855,43.3855,0,0,1-22.032,15.6976s-5.3294,2.1907-6.8676.6093c0,0-.1564-4.4356,1.7422-4.9983,0,0,22.1347-2.8933,26.6821-27.2621C1118.2441,346.1346,1119.92,344.2117,1121.6027,344.9354Z"/><path class="cls-2" d="M1076.7151,367.8144s-32.4574-5.456-41.4385,29.191l71.422,12.4467S1114.442,376.8018,1076.7151,367.8144Z"/><path class="cls-2" d="M1155.6656,381.0857s-32.4574-5.456-41.4385,29.191l71.422,12.4467S1193.3925,390.0731,1155.6656,381.0857Z"/><path class="cls-3" d="M1156.5428,381.2332s-20.1693,2.7556-30.4849,27.4911c0,0,3.7369,2.8464,6.3686,3.2888,0,0,7.5952-.7651,7.739-2.3656,0,0,5.2263-15.7379,15.9448-25.8414C1156.11,383.8061,1156.9094,381.7357,1156.5428,381.2332Z"/><path class="cls-3" d="M1077.5924,367.9619s-20.1693,2.7556-30.485,27.4911c0,0,3.737,2.8464,6.3686,3.2888,0,0,7.5953-.7651,7.7391-2.3656,0,0,5.2263-15.7379,15.9448-25.8414C1077.16,370.5348,1077.9589,368.4644,1077.5924,367.9619Z"/><ellipse class="cls-4" cx="1150.2686" cy="417.217" rx="6.0877" ry="36.2485" transform="translate(548.1431 1482.4084) rotate(-80.458)"/><ellipse class="cls-4" cx="1070.8795" cy="403.8719" rx="6.0877" ry="36.2485" transform="translate(495.0748 1392.9849) rotate(-80.458)"/><path class="cls-8" d="M1134.3894,470.0834s1.3776-2.879-.7951-3.2442c0,0-5.4308-2.246-4.56-4.7658,0,0,1.45-3.3111,7.75-.919,0,0,7.46.81,9.78-5.0214,0,0,3.5515-5.18-4.4852-10.53,0,0-7.1689-2.5382-6.2259-5.49,0,0,.074-3.0981,8.1846-.846,0,0,7.8941.8826,9.9254-5.8857,0,0,1.8147-8.1377-7.5268-11.0411,0,0-3.1143-.0791-3.4049,1.6494a2.3476,2.3476,0,0,0,.8677,2.812s6.2273,2.8243,4.4152,5.63c0,0-3.1156,2.5867-5.9394.779,0,0-8.98-2.3982-11.5907,5.1614a8.2441,8.2441,0,0,0,4.1232,10.0246s7.7488,1.7469,6.66,5.5632c0,0-1.45,3.311-8.1846.8459,0,0-8.8357-.5965-9.4908,5.9588,0,0-2.2493,8.0647,7.5268,11.0411A2.7352,2.7352,0,0,0,1134.3894,470.0834Z"/><path class="cls-7" d="M1053.5041,412.6852s-.1765,2.171,1.6392,1.7008c0,0,4.9565-.3726,5.0645,1.421,0,0-.098,2.4542-5.7808,3.0149,0,0-6.0949,1.8818-6.0849,6.13,0,0-1.158,4.2467,6.8117,4.9154,0,0,6.4091-.7487,6.5956,1.3282,0,0,.9129,1.8888-6.1439,3.1089,0,0-6.4581,1.9758-5.9279,6.6961,0,0,1.129,5.4761,9.3538,4.2572,0,0,2.4634-.9415,2.1493-2.0745,0,0,.049-1.2271-1.5606-1.4175,0,0-5.7613.2774-5.2216-1.9876a5.276,5.276,0,0,1,4.4068-2.3555s7.7831-1.4081,7.4589-6.789c0,0-.0885-4.5311-6.37-4.7262,0,0-6.6151,1.4094-6.9588-1.2341,0,0,.0981-2.4542,6.144-3.1089,0,0,7.1058-2.4471,5.5647-6.6021,0,0-.7658-5.57-9.3538-4.2572C1055.29,410.7047,1053.4746,411.1749,1053.5041,412.6852Z"/><path class="cls-6" d="M1081.3632,432.125s-2.0946.5582-1.97,3.967c0,0,8.6839,22.4852-10.226,31.8489,0,0-1.4214,1.1731-.7317,3.7252a2.4259,2.4259,0,0,0,2.8757,1.5282s22.7332-8.6175,13.31-39.4664A2.7726,2.7726,0,0,0,1081.3632,432.125Z"/><path class="cls-7" d="M1164.5366,458.7417s1.5342,1.5866-.3377,4.8565c0,0-19.1914,17.6617-7.5782,36.212,0,0,.63,1.853-1.29,4.0047,0,0-1.7594,1.6511-3.2936.0645,0,0-15.3267-19.7211,8.8351-45.19A2.6693,2.6693,0,0,1,1164.5366,458.7417Z"/><ellipse class="cls-6" cx="1096.93" cy="431.395" rx="3.2613" ry="3.3358" transform="translate(489.6647 1441.6356) rotate(-80.458)"/><ellipse class="cls-6" cx="1171.999" cy="440.9273" rx="3.2613" ry="3.3358" transform="translate(542.889 1523.618) rotate(-80.458)"/><ellipse class="cls-2" cx="1106.7934" cy="446.5015" rx="4.3483" ry="4.4477" transform="translate(482.9955 1463.9647) rotate(-80.458)"/><ellipse class="cls-7" cx="1104.0848" cy="476.0297" rx="4.3483" ry="4.4477" transform="matrix(0.1658, -0.9862, 0.9862, 0.1658, 451.6163, 1485.927)"/><ellipse class="cls-8" cx="1062.1527" cy="481.3273" rx="4.3483" ry="4.4477" transform="translate(411.411 1448.9943) rotate(-80.458)"/><ellipse class="cls-2" cx="1045.1151" cy="460.6055" rx="4.1309" ry="4.2253" transform="translate(417.6329 1414.9057) rotate(-80.458)"/><ellipse class="cls-2" cx="1122.5763" cy="493.4685" rx="3.6961" ry="3.7805" transform="translate(449.8449 1518.7105) rotate(-80.458)"/><path class="cls-9" d="M586.6027,162.9354s2.56.8712,2.2713,2.5865-4.0367,24.0137,17.2514,34.2062c0,0,2.3433,2.1576.6671,4.0805,0,0-4.4521,2.3382-7.4564-1.2534,0,0-13.0265-8.3627-15.6167-22.4671a43.3855,43.3855,0,0,1-22.032,15.6976s-5.3294,2.1907-6.8676.6093c0,0-.1564-4.4356,1.7422-4.9983,0,0,22.1347-2.8933,26.6821-27.2621C583.2441,164.1346,584.92,162.2117,586.6027,162.9354Z"/><path class="cls-2" d="M541.7151,185.8144s-32.4574-5.456-41.4385,29.191l71.422,12.4467S579.442,194.8018,541.7151,185.8144Z"/><path class="cls-2" d="M620.6656,199.0857s-32.4574-5.456-41.4385,29.191l71.422,12.4467S658.3925,208.0731,620.6656,199.0857Z"/><path class="cls-3" d="M621.5428,199.2332s-20.1693,2.7556-30.4849,27.4911c0,0,3.7369,2.8464,6.3686,3.2888,0,0,7.5952-.7651,7.739-2.3656,0,0,5.2263-15.7379,15.9448-25.8414C621.11,201.8061,621.9094,199.7357,621.5428,199.2332Z"/><path class="cls-3" d="M542.5924,185.9619s-20.1693,2.7556-30.485,27.4911c0,0,3.737,2.8464,6.3686,3.2888,0,0,7.5953-.7651,7.7391-2.3656,0,0,5.2263-15.7379,15.9448-25.8414C542.16,188.5348,542.9589,186.4644,542.5924,185.9619Z"/><ellipse class="cls-4" cx="615.2686" cy="235.217" rx="6.0877" ry="36.2485" transform="translate(281.3124 802.9808) rotate(-80.458)"/><ellipse class="cls-4" cx="535.8795" cy="221.8719" rx="6.0877" ry="36.2485" transform="translate(228.2441 713.5573) rotate(-80.458)"/><path class="cls-8" d="M599.3894,290.0834s1.3776-2.879-.7951-3.2442c0,0-5.4308-2.246-4.56-4.7658,0,0,1.45-3.3111,7.75-.919,0,0,7.46.81,9.78-5.0214,0,0,3.5515-5.18-4.4852-10.53,0,0-7.1689-2.5382-6.2259-5.49,0,0,.074-3.0981,8.1846-.846,0,0,7.8941.8826,9.9254-5.8857,0,0,1.8147-8.1377-7.5268-11.0411,0,0-3.1143-.0791-3.4049,1.6494a2.3476,2.3476,0,0,0,.8677,2.812s6.2273,2.8243,4.4152,5.63c0,0-3.1156,2.5867-5.9394.779,0,0-8.98-2.3982-11.5907,5.1614a8.2441,8.2441,0,0,0,4.1232,10.0246s7.7488,1.7469,6.66,5.5632c0,0-1.45,3.311-8.1846.8459,0,0-8.8357-.5965-9.4908,5.9588,0,0-2.2493,8.0647,7.5268,11.0411A2.7352,2.7352,0,0,0,599.3894,290.0834Z"/><path class="cls-7" d="M518.5041,232.6852s-.1765,2.171,1.6392,1.7008c0,0,4.9565-.3726,5.0645,1.421,0,0-.098,2.4542-5.7808,3.0149,0,0-6.0949,1.8818-6.0849,6.13,0,0-1.158,4.2467,6.8117,4.9154,0,0,6.4091-.7487,6.5956,1.3282,0,0,.9129,1.8888-6.1439,3.1089,0,0-6.4581,1.9758-5.9279,6.6961,0,0,1.129,5.4761,9.3538,4.2572,0,0,2.4634-.9415,2.1493-2.0745,0,0,.049-1.2271-1.5606-1.4175,0,0-5.7613.2774-5.2216-1.9876a5.276,5.276,0,0,1,4.4068-2.3555s7.7831-1.4081,7.4589-6.789c0,0-.0885-4.5311-6.37-4.7262,0,0-6.6151,1.4094-6.9588-1.2341,0,0,.0981-2.4542,6.144-3.1089,0,0,7.1058-2.4471,5.5647-6.6021,0,0-.7658-5.57-9.3538-4.2572C520.29,230.7047,518.4746,231.1749,518.5041,232.6852Z"/><path class="cls-6" d="M546.3632,252.125s-2.0946.5582-1.97,3.967c0,0,8.6839,22.4852-10.226,31.8489,0,0-1.4214,1.1731-.7317,3.7252a2.4259,2.4259,0,0,0,2.8757,1.5282s22.7332-8.6175,13.31-39.4664A2.7726,2.7726,0,0,0,546.3632,252.125Z"/><path class="cls-7" d="M629.5366,278.7417s1.5342,1.5866-.3377,4.8565c0,0-19.1914,17.6617-7.5782,36.212,0,0,.63,1.853-1.2905,4.0047,0,0-1.7594,1.6511-3.2936.0645,0,0-15.3267-19.7211,8.8351-45.19A2.6693,2.6693,0,0,1,629.5366,278.7417Z"/><ellipse class="cls-6" cx="561.93" cy="251.395" rx="3.2613" ry="3.3358" transform="translate(220.8616 763.8764) rotate(-80.458)"/><ellipse class="cls-6" cx="636.999" cy="260.9273" rx="3.2613" ry="3.3358" transform="translate(274.0859 845.8588) rotate(-80.458)"/><ellipse class="cls-2" cx="571.7934" cy="266.5015" rx="4.3483" ry="4.4477" transform="translate(214.1925 786.2056) rotate(-80.458)"/><ellipse class="cls-7" cx="569.0848" cy="296.0297" rx="4.3483" ry="4.4477" transform="matrix(0.1658, -0.9862, 0.9862, 0.1658, 182.8132, 808.1678)"/><ellipse class="cls-8" cx="527.1527" cy="301.3273" rx="4.3483" ry="4.4477" transform="translate(142.608 771.2351) rotate(-80.458)"/><ellipse class="cls-2" cx="510.1151" cy="280.6055" rx="4.1309" ry="4.2253" transform="translate(148.8298 737.1466) rotate(-80.458)"/><ellipse class="cls-2" cx="587.5763" cy="313.4685" rx="3.6961" ry="3.7805" transform="translate(181.0419 840.9513) rotate(-80.458)"/></g></symbol></defs><title>jubelsprite</title><use width="1600" height="900" xlink:href="#j1"/><use width="1600" height="900" transform="translate(1600)" xlink:href="#j2"/></svg>